<svg xmlns="http://www.w3.org/2000/svg" viewBox="0 0 1800 700" role="img" aria-labelledby="title desc">
  <title id="title">Gesttalt</title>
  <desc id="desc">Gesttalt, decentralized publishing for a connected web.</desc>
  <defs>
    <linearGradient id="bg" x1="0%" y1="0%" x2="100%" y2="100%">
      <stop offset="0%" stop-color="#fffdf8"/>
      <stop offset="100%" stop-color="#fffaf1"/>
    </linearGradient>
    <linearGradient id="purple" x1="0%" y1="0%" x2="100%" y2="100%">
      <stop offset="0%" stop-color="#1e175f"/>
      <stop offset="100%" stop-color="#2c2482"/>
    </linearGradient>
    <linearGradient id="paper" x1="0%" y1="0%" x2="100%" y2="100%">
      <stop offset="0%" stop-color="#fff7ea"/>
      <stop offset="100%" stop-color="#f4e0bf"/>
    </linearGradient>
    <linearGradient id="leaf" x1="0%" y1="0%" x2="100%" y2="100%">
      <stop offset="0%" stop-color="#d7cdfd"/>
      <stop offset="100%" stop-color="#8e7de0"/>
    </linearGradient>
    <filter id="soft" x="-20%" y="-20%" width="140%" height="140%">
      <feGaussianBlur stdDeviation="10"/>
    </filter>
  </defs>

  <rect width="1800" height="700" fill="url(#bg)"/>
  <g opacity="0.2" stroke="#efe6d8" stroke-width="16">
    <path d="M0 72 L1800 0"/>
    <path d="M0 164 L1800 92"/>
    <path d="M0 256 L1800 184"/>
    <path d="M0 348 L1800 276"/>
    <path d="M0 440 L1800 368"/>
    <path d="M0 532 L1800 460"/>
    <path d="M0 624 L1800 552"/>
  </g>

  <g transform="translate(88 112)">
    <text
      x="0"
      y="426"
      fill="url(#purple)"
      font-size="620"
      font-family="Georgia, 'Times New Roman', serif"
      font-weight="700"
      letter-spacing="-24"
    >G</text>

    <path
      d="M239 62h182c30 0 54 24 54 54v226c0 30-24 54-54 54H239c-30 0-54-24-54-54V116c0-30 24-54 54-54Z"
      fill="url(#paper)"
      opacity="0.96"
      filter="url(#soft)"
    />
    <path
      d="M239 62h182c30 0 54 24 54 54v34L395 62h26c30 0 54 24 54 54v226c0 30-24 54-54 54H239c-30 0-54-24-54-54V116c0-30 24-54 54-54Z"
      fill="url(#paper)"
    />
    <path d="M395 62v62c0 17 14 31 31 31h49" fill="#f6e6c5"/>

    <g stroke="#cfb8a2" stroke-linecap="round" opacity="0.95">
      <path d="M245 140h108" stroke-width="18"/>
      <path d="M245 190h176" stroke-width="14"/>
      <path d="M245 236h176" stroke-width="14"/>
      <path d="M245 282h88" stroke-width="14"/>
      <path d="M245 330h142" stroke-width="14"/>
      <path d="M245 376h128" stroke-width="14"/>
      <path d="M245 422h170" stroke-width="14"/>
      <path d="M245 468h176" stroke-width="14"/>
      <path d="M245 514h120" stroke-width="14"/>
    </g>

    <path
      d="M86 392c74 18 134 70 160 160-80-18-146-74-160-160Z"
      fill="url(#leaf)"
      opacity="0.88"
    />
    <path
      d="M126 420c42 32 76 76 100 132"
      fill="none"
      stroke="#d8d0f8"
      stroke-width="8"
      stroke-linecap="round"
    />
    <path
      d="M124 466c26 6 52 18 78 38"
      fill="none"
      stroke="#c7baf4"
      stroke-width="6"
      stroke-linecap="round"
    />
    <path
      d="M112 500c22 8 40 20 58 34"
      fill="none"
      stroke="#c7baf4"
      stroke-width="6"
      stroke-linecap="round"
    />
  </g>

  <g transform="translate(700 120)" fill="#241a78">
    <text
      x="0"
      y="240"
      font-size="235"
      font-family="Georgia, 'Times New Roman', serif"
      font-weight="600"
      letter-spacing="-6"
    >Gesttalt</text>

    <g transform="translate(0 338)" stroke="#6359a8" stroke-width="5" fill="none">
      <path d="M0 27h378"/>
      <path d="M585 27h378"/>
      <circle cx="481" cy="27" r="32"/>
      <path d="M449 27h64"/>
      <path d="M481 -5v64"/>
      <path d="M463 2c12 16 12 48 0 64"/>
      <path d="M499 2c-12 16-12 48 0 64"/>
      <path d="M451 14c18 10 42 10 60 0"/>
      <path d="M451 40c18 -10 42 -10 60 0"/>
    </g>

    <text
      x="480"
      y="450"
      text-anchor="middle"
      font-size="58"
      font-family="Avenir Next, Helvetica, Arial, sans-serif"
      letter-spacing="8"
      font-weight="500"
      fill="#6257a3"
    >DECENTRALIZED PUBLISHING</text>
    <text
      x="480"
      y="525"
      text-anchor="middle"
      font-size="58"
      font-family="Avenir Next, Helvetica, Arial, sans-serif"
      letter-spacing="8"
      font-weight="500"
      fill="#6257a3"
    >FOR A CONNECTED WEB</text>
  </g>
</svg>
